<?xml version="1.0"?>
<svg xmlns="http://www.w3.org/2000/svg" viewBox="0 0 512 512" width="512" height="512"><g id="Fill_out_line" data-name="Fill out line"><path d="M455.81982,427.26A39.71549,39.71549,0,0,0,440,424c-.21973,0-.43994,0-.66016.01a48.02349,48.02349,0,0,0-72.34961-32.99,40.00257,40.00257,0,0,0-67.17041-19.3999A173.272,173.272,0,0,1,288,308.66992V200H224V308.66992a173.26691,173.26691,0,0,1-11.82007,62.9502A40.03532,40.03532,0,0,0,145.01,391.02a48.02393,48.02393,0,0,0-72.3501,32.99C72.43994,424,72.22,424,72,424a40,40,0,0,0-32,64H472a40.00128,40.00128,0,0,0-16.18018-60.74Z" style="fill:#f5de46"/><path d="M448,96c-1.1001,0-2.18994.06006-3.27.14014A39.98555,39.98555,0,0,0,399.21973,72.98,32.02087,32.02087,0,0,0,368,48c-.78027,0-1.5498.03-2.31006.08008A31.88885,31.88885,0,0,0,350.50977,53.21a39.9818,39.9818,0,0,0-68.42969-15.74,31.98265,31.98265,0,0,0-52.16016,0A39.98083,39.98083,0,0,0,161.49,53.21a31.888,31.888,0,0,0-15.17993-5.12988C145.54,48.03,144.77,48,144,48a32.04709,32.04709,0,0,0-31.22,24.98A40.32426,40.32426,0,0,0,104,72,40.05806,40.05806,0,0,0,67.27,96.14014C66.18994,96.06006,65.1001,96,64,96a40,40,0,1,0,16.17993,76.58008,31.99506,31.99506,0,0,0,42.42017,33.60986A39.98743,39.98743,0,0,0,189.91992,218.53a31.93872,31.93872,0,0,0,24.5,13.42993c.52.03,1.05.04,1.58008.04a31.78638,31.78638,0,0,0,15.16992-3.82007,31.99,31.99,0,0,0,49.66016,0A31.78494,31.78494,0,0,0,296,232c.53027,0,1.06006-.01,1.58008-.04a31.93913,31.93913,0,0,0,24.5-13.42993,39.98725,39.98725,0,0,0,67.31982-12.34009A31.98784,31.98784,0,0,0,432,176a32.33,32.33,0,0,0-.18018-3.41992A39.99946,39.99946,0,1,0,448,96Z" style="fill:#efdd9b"/><path d="M284,184.5a56.01667,56.01667,0,0,1-56,0l16-27.72a23.97044,23.97044,0,0,0,24,0Z" style="fill:#f5de46"/><path d="M312,136H280a23.988,23.988,0,0,0-12-20.78L284,87.5A55.95523,55.95523,0,0,1,312,136Z" style="fill:#f5de46"/><path d="M244,115.22A23.988,23.988,0,0,0,232,136H200a55.95523,55.95523,0,0,1,28-48.5Z" style="fill:#f5de46"/><rect x="112" y="296" width="288" height="24" rx="11.99999" ry="11.99999" style="fill:#efdd9b"/><rect x="16" y="480" width="480" height="16"/><path d="M408,308a20.02229,20.02229,0,0,0-20-20H124a20,20,0,0,0,0,40H388A20.02229,20.02229,0,0,0,408,308Zm-288,0a4.004,4.004,0,0,1,4-4H388a4,4,0,0,1,0,8H124A4.004,4.004,0,0,1,120,308Z"/><path d="M64,184a48.25134,48.25134,0,0,0,8.66309-.793,39.97031,39.97031,0,0,0,45.5166,32.30982,47.94016,47.94016,0,0,0,71.26806,14.36425,39.84675,39.84675,0,0,0,39.81543,7.84009,39.90668,39.90668,0,0,0,53.35352.10376,39.851,39.851,0,0,0,39.52026-7.9436,47.941,47.941,0,0,0,71.26856-14.3645A39.97,39.97,0,0,0,438.92188,183.207a47.9914,47.9914,0,1,0,10.26147-95.1665A47.914,47.914,0,0,0,407.585,64c-1.10351,0-2.2.04517-3.29077.11816a39.9441,39.9441,0,0,0-49.93384-21.85351A47.94488,47.94488,0,0,0,282.3562,25.94922a39.89041,39.89041,0,0,0-52.9082.16943,47.94516,47.94516,0,0,0-72.22339,16.14624,39.94386,39.94386,0,0,0-49.93433,21.85327C106.19971,64.04517,105.10352,64,104,64A47.914,47.914,0,0,0,62.40161,88.04053,47.99293,47.99293,0,0,0,64,184Zm0-80a31.71721,31.71721,0,0,1,19.19531,6.39355l9.60938-12.793a47.82918,47.82918,0,0,0-12.728-6.84278,31.99192,31.99192,0,0,1,43.12158-4.36133l9.61133-12.793a48.08185,48.08185,0,0,0-9.57935-5.59815A23.99761,23.99761,0,0,1,152.44824,57.53,48.18872,48.18872,0,0,0,152,64h16a31.98627,31.98627,0,0,1,51.84351-25.08984A39.75121,39.75121,0,0,0,216,56h16a24,24,0,0,1,48,0h16a39.75935,39.75935,0,0,0-3.95166-17.32812A31.98461,31.98461,0,0,1,343.585,64h16a48.18954,48.18954,0,0,0-.44824-6.47021,23.99761,23.99761,0,0,1,29.21753,10.47583,48.07466,48.07466,0,0,0-9.57886,5.59887l9.61133,12.791a31.99357,31.99357,0,0,1,43.12158,4.3623,47.81628,47.81628,0,0,0-12.729,6.84278l9.60937,12.793a31.99969,31.99969,0,1,1,10.07862,56.28174A40.0331,40.0331,0,0,0,426.04492,146.002L415.457,157.99805A23.99986,23.99986,0,0,1,399.585,200c-.22607,0-.44922-.022-.67432-.02808a47.92255,47.92255,0,0,0-3.3247-27.176l-14.66016,6.4082a31.99575,31.99575,0,0,1-49.18432,37.88574,39.97881,39.97881,0,0,0-1.72-37.44824l-13.76562,8.1543A24.00728,24.00728,0,0,1,295.585,224a24.56053,24.56053,0,0,1-2.85864-.1687A39.766,39.766,0,0,0,296,208H280a24,24,0,0,1-48,0H216a39.76536,39.76536,0,0,0,3.24707,15.77271,24.00256,24.00256,0,0,1-23.918-35.97779l-13.76758-8.15234a39.98355,39.98355,0,0,0-1.71826,37.44678,32.00433,32.00433,0,0,1-49.18408-37.88624l-14.66211-6.40624a47.93445,47.93445,0,0,0-3.32275,27.175c-.2251.00611-.44825.02808-.67432.02808a23.99986,23.99986,0,0,1-15.87207-42.00195L85.54,146.002a40.03331,40.03331,0,0,0-12.42236,20.6731A32.00063,32.00063,0,1,1,64,104Z"/><circle cx="256" cy="136" r="8"/><path d="M274.92871,152.78125a7.99977,7.99977,0,0,0-10.94531-2.91895,16.24068,16.24068,0,0,1-15.9668,0,7.99977,7.99977,0,0,0-10.94531,2.91895l-16,27.71973a8,8,0,0,0,2.9209,10.92285,64.01754,64.01754,0,0,0,64.01562,0,8,8,0,0,0,2.9209-10.92285Zm-35.667,28.21094,8.17285-14.15918a32.31749,32.31749,0,0,0,17.13086,0l8.17285,14.15918A48.64094,48.64094,0,0,1,239.26172,180.99219Z"/><path d="M263.99219,122.14355A16.06706,16.06706,0,0,1,272,136a8.00039,8.00039,0,0,0,8,8h32a8.00039,8.00039,0,0,0,8-8,64.21856,64.21856,0,0,0-31.99512-55.42578A8.00156,8.00156,0,0,0,277.07129,83.501l-16,27.71972A8,8,0,0,0,263.99219,122.14355Zm22.59668-23.125A48.27541,48.27541,0,0,1,303.32324,128H286.97461a32.199,32.199,0,0,0-8.56055-14.81934Z"/><path d="M200,144h32a8.00039,8.00039,0,0,0,8-8,16.06706,16.06706,0,0,1,8.00781-13.85645,8,8,0,0,0,2.9209-10.92285l-16-27.71972a8.00156,8.00156,0,0,0-10.93359-2.92676A64.21856,64.21856,0,0,0,192,136,8.00039,8.00039,0,0,0,200,144Zm25.41113-44.98145,8.17481,14.16211A32.199,32.199,0,0,0,225.02539,128H208.67676A48.27541,48.27541,0,0,1,225.41113,99.01855Z"/><path d="M440.50293,460.00586a55.98576,55.98576,0,0,0,7.48047-26.99756A32.058,32.058,0,0,1,472,464h16a48.06076,48.06076,0,0,0-42.2395-47.64209,55.90547,55.90547,0,0,0-74.15259-36.48242,48.05505,48.05505,0,0,0-67.90112-21.28565,164.67077,164.67077,0,0,1-5.64722-23.84765l-15.80078,2.51562a182.02732,182.02732,0,0,0,98.16309,133.89746l7.15624-14.31054a166.03706,166.03706,0,0,1-78.144-82.90284A32.013,32.013,0,0,1,357.61719,387.833a55.91541,55.91541,0,0,0-14.12012,16.16113l13.84961,8.01172a40.00773,40.00773,0,0,1,69.30664,39.98828Z"/><rect x="216" y="248" width="16" height="32"/><path d="M124.42188,456.84473l7.15624,14.31054a182.02732,182.02732,0,0,0,98.16309-133.89746l-15.80078-2.51562a164.67077,164.67077,0,0,1-5.64722,23.84765,48.05505,48.05505,0,0,0-67.90112,21.28565A55.90547,55.90547,0,0,0,66.2395,416.35791,48.06076,48.06076,0,0,0,24,464H40a32.058,32.058,0,0,1,24.0166-30.9917,55.98576,55.98576,0,0,0,7.48047,26.99756l13.84961-8.01172a40.00773,40.00773,0,0,1,69.30664-39.98828l13.84961-8.01172A55.91541,55.91541,0,0,0,154.38281,387.833a32.013,32.013,0,0,1,48.18311-13.89112A166.03706,166.03706,0,0,1,124.42188,456.84473Z"/><rect x="280" y="248" width="16" height="32"/></g></svg>
